<svg xmlns="http://www.w3.org/2000/svg" width="55" style="margin-top: 5px;" height="55" viewBox="0 0 35 35" fill="none"><path fill-rule="evenodd" clip-rule="evenodd" d="M23.5703 23.6314C25.6816 23.6314 27.3932 21.8881 27.3932 19.7377C27.3932 17.5871 25.6816 15.8439 23.5703 15.8439L23.5703 23.6314Z" fill="#1D2977"></path><path fill-rule="evenodd" clip-rule="evenodd" d="M24.1777 22.9535L24.1777 16.5215C25.661 16.8119 26.7851 18.1436 26.7851 19.7377C26.7851 21.3317 25.661 22.6634 24.1777 22.9535ZM24.4834 4.47268C22.2154 2.16278 19.2117 0.890381 16.0256 0.890381C12.8395 0.890381 9.83565 2.16278 7.56748 4.47268C6.70527 5.35117 5.9902 6.3377 5.43509 7.40158C5.07834 8.39456 6.23002 8.63697 6.50946 7.9768C8.31555 4.50169 11.9037 2.12859 16.0256 2.12859C21.9584 2.12859 26.7851 7.04467 26.7851 13.0874L26.7851 16.6373C25.977 15.7684 24.8351 15.2248 23.57 15.2248C23.2341 15.2248 22.962 15.5019 22.962 15.8438L22.962 23.6313C22.962 23.9734 23.2341 24.2505 23.57 24.2505C25.9902 24.2505 27.9624 22.2633 27.9991 19.8068C27.9993 19.7993 28 17.5593 28.0006 13.0874C28.0006 9.84228 26.7515 6.78285 24.4834 4.47268Z" fill="#1D2977"></path><path fill-rule="evenodd" clip-rule="evenodd" d="M26.8908 23.5691C26.7367 23.5691 26.5854 23.6331 26.4763 23.7439C26.3673 23.855 26.3047 24.0091 26.3047 24.1669C26.3047 24.3233 26.3673 24.4771 26.4763 24.589C26.5854 24.6999 26.7367 24.7633 26.8908 24.7633C27.0449 24.7633 27.1962 24.6999 27.3053 24.589C27.4144 24.4771 27.4769 24.3238 27.4769 24.1669C27.4769 24.0091 27.4144 23.855 27.3053 23.7439C27.1962 23.6331 27.0449 23.5691 26.8908 23.5691Z" fill="#1D2977"></path><path fill-rule="evenodd" clip-rule="evenodd" d="M18.114 29.4904L18.9765 29.3037L19.1599 30.1822L18.2974 30.3689L18.114 29.4904ZM26.5604 25.5147C26.2698 25.3438 25.8977 25.4451 25.7299 25.7411C24.5503 27.821 22.6964 29.2516 20.3453 29.9069L20.0394 28.4407C19.9694 28.1062 19.6468 27.8928 19.3183 27.9637L17.2668 28.4079C16.9382 28.4791 16.7287 28.8078 16.7986 29.1424L17.2347 31.2319C17.3044 31.5665 17.6271 31.7799 17.9556 31.7089L20.0073 31.2647C22.9858 30.6199 25.3287 28.924 26.7826 26.3606C26.9507 26.0646 26.851 25.6859 26.5604 25.5147Z" fill="#1D2977"></path><path fill-rule="evenodd" clip-rule="evenodd" d="M2.73924 24.4576C1.59954 24.4576 0.675781 23.5166 0.675781 22.3558L0.675781 11.335C0.675781 10.1741 1.59954 9.23328 2.73924 9.23328L17.6033 9.23328C18.743 9.23328 19.6668 10.1741 19.6668 11.335L19.6668 25.1879C19.6668 25.9266 19.0789 26.5254 18.3538 26.5254C17.9581 26.5254 17.5835 26.3438 17.3343 26.0309L16.0805 24.4576L2.73924 24.4576ZM2.73924 10.3795C2.22126 10.3795 1.80123 10.8074 1.80123 11.335L1.80123 22.3558C1.80123 22.8834 2.22126 23.3113 2.73924 23.3113L16.6165 23.3113L18.208 25.3083C18.2436 25.3531 18.2973 25.3791 18.3538 25.3791C18.4575 25.3791 18.5414 25.2936 18.5414 25.1879L18.5414 11.335C18.5414 10.8074 18.1213 10.3795 17.6033 10.3795L2.73924 10.3795Z" fill="#F7F8FD"></path><path fill-rule="evenodd" clip-rule="evenodd" d="M13.627 16.2499L17.4104 16.2499L17.4104 17.2524L15.4268 22.2478L14.2045 22.2478L16.1299 17.3809L13.627 17.3809L13.627 16.2499ZM12.1357 16.1429L12.1357 17.2397L11.5079 17.2397L11.5079 18.2594L10.3443 18.2594L10.3443 17.2397L7.57366 17.2397L7.57366 16.1429L9.59161 12.1416L10.8305 12.1416L8.82094 16.1429L10.3443 16.1429L10.3443 14.7206L11.5079 14.7206L11.5079 16.1429L12.1357 16.1429ZM3.03025 18.2594L3.03025 17.3768L5.03065 15.2691C5.40751 14.8664 5.70044 14.4722 5.70044 14.0695C5.70044 13.5896 5.38227 13.2897 4.93858 13.2897C4.48675 13.2897 4.15186 13.5639 3.95936 13.9923L2.98828 13.4096C3.36514 12.5528 4.1267 12.1416 4.92208 12.1416C5.92646 12.1416 6.85558 12.8269 6.85558 14.0265C6.85558 14.7547 6.44542 15.3804 5.89286 15.9458L4.74608 17.1198L6.94764 17.1198L6.94764 18.2594L3.03025 18.2594Z" fill="#1D2977"></path><path fill-rule="evenodd" clip-rule="evenodd" d="M14.9103 12.3535L9.68359 22.2476H10.1901L15.4133 12.3535L14.9103 12.3535Z" fill="#1D2977"></path></svg>