<svg width="50" height="50" style="margin-top: 5px;" viewBox="0 0 33 32" fill="none" xmlns="http://www.w3.org/2000/svg">
                        <g clip-path="url(#clip0_38_4838)">
                            <path fill-rule="evenodd" clip-rule="evenodd" d="M24.9948 18.0355L24.9772 17.9198C24.848 17.0756 24.838 16.7502 24.9334 16.3969C25.0237 16.0626 25.1923 15.7948 25.7172 15.1481C26.4268 14.274 26.605 13.9455 26.6049 13.4286C26.6049 12.912 26.4267 12.5835 25.7171 11.7094L25.6601 11.6392C25.1963 11.0664 25.02 10.7814 24.9334 10.4607C24.8678 10.218 24.8554 9.93561 24.8934 9.55565C24.9091 9.39847 24.9278 9.26087 24.9773 8.93797C25.1446 7.84517 25.1343 7.49142 24.8836 7.06262C24.6373 6.64106 24.3003 6.43168 23.3491 6.06437L23.2716 6.0345C22.4761 5.72822 22.1893 5.57637 21.934 5.32365C21.6787 5.07092 21.5256 4.78727 21.2163 3.99999L21.1859 3.92304C20.8149 2.98137 20.6032 2.64744 20.1775 2.40369C19.7652 2.16752 19.3661 2.15114 18.3621 2.29981L18.2632 2.31463C17.9584 2.36032 17.8206 2.37866 17.6633 2.39409C17.2778 2.43192 16.9915 2.41967 16.7454 2.35457C16.4071 2.26509 16.1364 2.09807 15.4829 1.57834C14.6001 0.876134 14.2688 0.700073 13.7478 0.700073C13.2918 0.700073 12.8999 0.888965 12.2661 1.37872C12.2041 1.42655 12.1437 1.47414 12.0129 1.57808C11.3593 2.09791 11.0886 2.26493 10.7504 2.35441C10.3929 2.44894 10.0632 2.43905 9.21055 2.31109C8.10761 2.1455 7.75089 2.15572 7.31843 2.40339C6.87836 2.65541 6.68681 2.96339 6.27973 3.99961C5.97047 4.78666 5.81718 5.07047 5.56186 5.32319C5.32842 5.55428 5.02259 5.72311 4.40278 5.96494C4.35554 5.98338 4.31821 5.99786 4.22426 6.03397L4.14647 6.06399C3.19539 6.43123 2.85847 6.6406 2.61207 7.06208C2.37306 7.47107 2.35653 7.86704 2.50685 8.86193L2.52171 8.9593C2.56788 9.26102 2.5864 9.39732 2.60201 9.55298C2.64019 9.93416 2.62777 10.2172 2.56217 10.4603C2.47135 10.7965 2.30038 11.0659 1.74289 11.7528C1.66982 11.843 1.62358 11.9006 1.57748 11.9591C1.08171 12.5876 0.890625 12.976 0.890625 13.4286C0.890625 13.8808 1.08163 14.2693 1.57588 14.8961C1.62449 14.9579 1.67295 15.018 1.77824 15.1479C2.30304 15.7944 2.47181 16.0624 2.56209 16.3968C2.62769 16.6396 2.64011 16.9222 2.60209 17.3025C2.58632 17.4596 2.56765 17.5969 2.51821 17.9195C2.35089 19.0121 2.36118 19.3659 2.61184 19.7948C2.85824 20.2163 3.19523 20.4257 4.1464 20.793L4.22388 20.8228C5.01931 21.1291 5.30624 21.281 5.56156 21.5338C5.8168 21.7864 5.97001 22.0701 6.27927 22.8574L6.3096 22.9344C6.68072 23.876 6.89245 24.2099 7.31813 24.4537C7.7304 24.6898 8.12956 24.7062 9.13382 24.5575L9.23302 24.5426C9.53832 24.4968 9.67645 24.4785 9.83409 24.4631C9.979 24.4488 10.1068 24.4419 10.2246 24.4419C10.4237 24.4419 10.5957 24.4619 10.7501 24.5027C11.0884 24.5922 11.3591 24.7592 12.0126 25.2789C12.8955 25.9812 13.2267 26.1572 13.7478 26.1572C14.2688 26.1572 14.6 25.9812 15.4828 25.279L15.5539 25.2225C16.1325 24.7633 16.4207 24.5886 16.7452 24.5028C17.1027 24.4082 17.4319 24.4181 18.285 24.5461C19.3879 24.7117 19.7446 24.7015 20.1772 24.4539C20.6172 24.2018 20.8088 23.8939 21.2159 22.8576C21.5251 22.0706 21.6784 21.7867 21.9337 21.5341C22.1891 21.2812 22.4758 21.1295 23.2713 20.8232L23.3491 20.7932C24.3001 20.426 24.6371 20.2166 24.8835 19.7951C25.1225 19.3861 25.1391 18.9902 24.9948 18.0355ZM25.287 13.4288C25.287 13.5379 25.1229 13.7959 24.6907 14.3284C24.0328 15.139 23.8099 15.5051 23.6604 16.0587C23.5063 16.6294 23.5139 17.0684 23.677 18.1337L23.6915 18.2293C23.7728 18.7677 23.7826 19.0724 23.7433 19.1396C23.6981 19.2171 23.4237 19.3617 22.871 19.5752L22.7944 19.6046C21.8027 19.9864 21.419 20.1967 21.0027 20.6088C20.5863 21.021 20.3736 21.4014 19.9879 22.383C19.745 23.0013 19.6016 23.274 19.5182 23.3218C19.4429 23.365 19.1303 23.351 18.4822 23.2537C17.4233 23.0948 16.9805 23.0877 16.4055 23.2398C15.8675 23.3822 15.468 23.6167 14.7305 24.202L14.6584 24.2593C14.1196 24.6878 13.8592 24.85 13.7478 24.85C13.6363 24.85 13.3758 24.6877 12.8371 24.2592C12.0183 23.6081 11.6486 23.3876 11.0898 23.2398C10.8211 23.1686 10.5371 23.1348 10.2246 23.1348C10.0621 23.1348 9.89207 23.1438 9.70464 23.1622C9.51775 23.1805 9.363 23.2011 8.99523 23.2563L8.89878 23.2707C8.35401 23.3514 8.04575 23.361 7.9771 23.3217C7.89855 23.2767 7.75264 23.0056 7.53702 22.4585L7.50716 22.3827C7.12141 21.4008 6.90891 21.0208 6.49261 20.6086C6.0763 20.1965 5.69238 19.986 4.70083 19.6043L4.62449 19.5749C4.07165 19.3614 3.79729 19.2167 3.75196 19.1392C3.70868 19.0652 3.72346 18.7534 3.82449 18.0939C3.87462 17.7668 3.8952 17.6146 3.91348 17.4315C3.9672 16.8943 3.94502 16.4657 3.83508 16.0586C3.68483 15.5022 3.46022 15.1356 2.76994 14.2852C2.70007 14.1991 2.65634 14.1446 2.61398 14.0909C2.34312 13.7473 2.20842 13.514 2.20842 13.4286C2.20842 13.3431 2.34342 13.1093 2.61542 12.7645C2.65939 12.7088 2.70434 12.6528 2.80499 12.5287C3.46274 11.7182 3.6856 11.3521 3.83516 10.7985C3.94518 10.3909 3.96727 9.96189 3.91341 9.42376C3.89489 9.23915 3.87409 9.08646 3.81862 8.72349L3.80407 8.62795C3.7227 8.08951 3.71295 7.78483 3.75219 7.71763C3.79752 7.64014 4.07188 7.49553 4.62457 7.28205L4.70114 7.25256C4.79714 7.21561 4.83569 7.20068 4.88521 7.1814C5.68582 6.86902 6.10906 6.62833 6.49291 6.24829C6.90921 5.8361 7.12186 5.45591 7.50761 4.47428C7.75051 3.85591 7.89398 3.58315 7.9774 3.53538C8.05276 3.49226 8.36521 3.5062 9.01337 3.60349C10.0717 3.76235 10.515 3.76944 11.0899 3.61744C11.6515 3.46887 12.0214 3.24677 12.8808 2.56333C12.9673 2.49461 13.022 2.45162 13.0759 2.40991C13.4243 2.1408 13.6604 2.00722 13.7478 2.00722C13.8592 2.00722 14.1197 2.16957 14.6585 2.59812C15.4772 3.24921 15.847 3.4697 16.4057 3.61759C16.817 3.72631 17.2499 3.74818 17.793 3.69485C17.9795 3.67656 18.1337 3.65599 18.5008 3.60098L18.5973 3.58658C19.1417 3.50597 19.4498 3.49637 19.5184 3.53568C19.5971 3.58064 19.7429 3.85172 19.9585 4.39885L19.9884 4.47466C20.3741 5.4566 20.5866 5.83656 21.003 6.24875C21.4193 6.66087 21.803 6.87123 22.7946 7.25302L22.871 7.28243C23.4238 7.49591 23.6982 7.6406 23.7435 7.71816C23.7868 7.79222 23.772 8.10399 23.671 8.76349C23.6208 9.09111 23.6002 9.24349 23.5819 9.42688C23.5283 9.96357 23.5505 10.392 23.6604 10.7988C23.8043 11.3319 24.0413 11.7275 24.6327 12.4578L24.6906 12.5291C25.1229 13.0617 25.287 13.3197 25.287 13.4288Z" fill="#1D2977" />
                            <path fill-rule="evenodd" clip-rule="evenodd" d="M14.0063 21.6575C18.4797 21.6575 22.1062 18.0885 22.1062 13.686C22.1062 9.28351 18.4797 5.7146 14.0063 5.7146C9.53276 5.7146 5.90625 9.28351 5.90625 13.686C5.90625 18.0885 9.53276 21.6575 14.0063 21.6575ZM18.9875 8.93365C18.6731 8.70706 18.233 8.77624 18.0045 9.08809L12.3014 16.8743L9.61886 14.7629C9.31448 14.5233 8.87181 14.5738 8.63021 14.8757C8.38861 15.1776 8.43951 15.6167 8.74396 15.8563L12.0016 18.4204C12.3153 18.6673 12.7731 18.6053 13.0084 18.284L19.1433 9.9085C19.3717 9.59666 19.302 9.16016 18.9875 8.93365Z" fill="#F7F8FD" />
                            <path d="M14.0049 5.2002C14.2986 5.2002 14.5367 5.43471 14.5367 5.724C14.5367 6.0133 14.2986 6.24781 14.0049 6.24781C9.83474 6.24781 6.45409 9.57795 6.45409 13.6859C6.45409 17.7939 9.83474 21.124 14.0049 21.124C18.1751 21.124 21.5557 17.7939 21.5557 13.6859C21.5557 13.3966 21.7937 13.1621 22.0875 13.1621C22.3811 13.1621 22.6192 13.3966 22.6192 13.6859C22.6192 18.3725 18.7624 22.1716 14.0049 22.1716C9.24739 22.1716 5.39062 18.3725 5.39062 13.6859C5.39062 8.99936 9.24739 5.2002 14.0049 5.2002Z" fill="#1D2977" />
                            <path d="M20.1655 25.5672C20.1655 25.2539 20.4269 25 20.7492 25C21.0716 25 21.3329 25.2539 21.3329 25.5672V30.8611C21.3329 31.2263 20.9831 31.4963 20.617 31.4136L14.0555 29.9307L7.38976 31.414C7.02428 31.4953 6.67578 31.2255 6.67578 30.8611V27.3318C6.67578 27.0186 6.93711 26.7646 7.25948 26.7646C7.58184 26.7646 7.84317 27.0186 7.84317 27.3318V30.1493L13.9263 28.7957C14.0127 28.7765 14.1024 28.7766 14.1888 28.7961L20.1655 30.1469V25.5672Z" fill="#F7F8FD" />
                            <path d="M7.31868 25C7.14961 25 6.98374 25.0688 6.86412 25.1883C6.74458 25.308 6.67578 25.4738 6.67578 25.6435C6.67578 25.812 6.74458 25.9778 6.86412 26.098C6.98374 26.2176 7.14961 26.2857 7.31868 26.2857C7.48774 26.2857 7.65361 26.2176 7.77315 26.098C7.8927 25.9778 7.9615 25.8126 7.9615 25.6435C7.9615 25.4738 7.8927 25.308 7.77315 25.1883C7.65361 25.0688 7.48774 25 7.31868 25Z" fill="#F7F8FD" />
                            <path d="M16.0647 5.2002C15.8956 5.2002 15.7298 5.269 15.6102 5.38854C15.4907 5.50816 15.4219 5.67402 15.4219 5.8437C15.4219 6.01216 15.4907 6.17802 15.6102 6.29818C15.7298 6.4178 15.8956 6.48591 16.0647 6.48591C16.2338 6.48591 16.3996 6.4178 16.5192 6.29818C16.6388 6.17802 16.7076 6.01277 16.7076 5.8437C16.7076 5.67402 16.6388 5.50816 16.5192 5.38854C16.3996 5.269 16.2338 5.2002 16.0647 5.2002Z" fill="#1D2977" />
                        </g>
                        <defs>
                            <clipPath id="clip0_38_4838">
                                <rect width="26.6667" height="32" fill="white" transform="translate(0.667969)" />
                            </clipPath>
                        </defs>
                    </svg>