<svg width="54" height="54" viewBox="0 0 49 32" fill="none" xmlns="http://www.w3.org/2000/svg">
                        <path d="M16.5447 30.9435H10.7372C10.069 30.9435 9.52734 30.4018 9.52734 29.7336V19.873C9.52734 19.2047 10.069 18.6631 10.7372 18.6631H16.5448C17.213 18.6631 17.7546 19.2047 17.7546 19.873V29.7336C17.7546 30.4018 17.2129 30.9435 16.5447 30.9435Z" fill="#F7F8FD" />
                        <path d="M13.6401 27.9188C13.481 27.9188 13.3249 27.9835 13.2124 28.0961C13.0999 28.2087 13.0352 28.3647 13.0352 28.5238C13.0352 28.6829 13.0998 28.839 13.2124 28.9515C13.3249 29.064 13.481 29.1288 13.6401 29.1288C13.7992 29.1288 13.9553 29.064 14.0677 28.9515C14.1803 28.839 14.2451 28.6829 14.2451 28.5238C14.2451 28.3647 14.1804 28.2086 14.0677 28.0961C13.9552 27.9834 13.7992 27.9188 13.6401 27.9188Z" fill="#1D2977" />
                        <path d="M36.898 12.2402C36.7388 12.2402 36.5828 12.3049 36.4703 12.4175C36.3578 12.53 36.293 12.6861 36.293 12.8452C36.293 13.0043 36.3577 13.1604 36.4703 13.2728C36.5828 13.3854 36.7388 13.4501 36.898 13.4501C37.0577 13.4501 37.2131 13.3854 37.3257 13.2728C37.4387 13.1604 37.5035 13.0043 37.5035 12.8452C37.5035 12.6861 37.4387 12.53 37.3257 12.4175C37.2131 12.3049 37.0577 12.2402 36.898 12.2402Z" fill="#1D2977" />
                        <path fill-rule="evenodd" clip-rule="evenodd" d="M39.2901 7.55762C39.4506 7.55762 39.6045 7.62137 39.718 7.73477C39.8315 7.84825 39.8951 8.00211 39.8952 8.16256V30.9438C39.8952 31.2778 39.6243 31.5487 39.2902 31.5487H21.0284C20.2916 31.5487 19.5802 31.2821 19.0249 30.7978L18.3056 30.1706C18.1096 30.9608 17.3944 31.5486 16.5443 31.5486H10.7367C9.73598 31.5486 8.92181 30.7345 8.92188 29.7337V19.8731C8.92188 18.8724 9.73598 18.0582 10.7367 18.0582H16.5442C17.1657 18.0582 17.7151 18.3725 18.0423 18.8503L19.9636 16.929C20.1802 16.7124 20.6247 16.3464 21.3847 15.9404C22.5446 15.3209 23.8035 14.878 23.8035 14.878V9.8934V8.16333C23.8035 7.82932 24.0743 7.55838 24.4084 7.55838L39.2901 7.55762ZM10.7367 30.3387H16.5441C16.8776 30.3387 17.149 30.0673 17.1491 29.7338V19.8731C17.1491 19.5396 16.8777 19.2682 16.5442 19.2682H14.2454V26.2371C14.2454 26.5711 13.9745 26.842 13.6404 26.842C13.3063 26.842 13.0354 26.5711 13.0354 26.2371V19.2682H10.7367C10.4031 19.2682 10.1317 19.5396 10.1317 19.8731V29.7338C10.1317 30.0674 10.4031 30.3387 10.7367 30.3387ZM19.8199 29.886L18.359 28.6119V20.2447L20.3182 18.2568C20.3182 18.2568 21.1505 17.5361 21.711 17.22C22.8922 16.5537 23.8018 16.292 23.8018 16.292V17.9182L23.2157 19.4778C23.2842 19.7456 23.5254 19.9328 23.8018 19.9328L33.9591 19.9336C34.4261 19.9336 34.806 20.3135 34.806 20.7805C34.806 21.2475 34.4261 21.6275 33.9591 21.6275H27.8647C27.5306 21.6275 27.2597 21.8984 27.2597 22.2325C27.2597 22.5665 27.5306 22.8374 27.8647 22.8374H35.8526C36.3196 22.8374 36.6996 23.2174 36.6996 23.6844C36.6996 24.1514 36.3196 24.5313 35.8526 24.5313H27.8647C27.5306 24.5313 27.2597 24.8022 27.2597 25.1362C27.2597 25.4703 27.5306 25.7413 27.8647 25.7413H34.5582C35.0252 25.7413 35.4051 26.1212 35.4051 26.5882C35.4051 27.0552 35.0252 27.4351 34.5582 27.4351H27.8647C27.5306 27.4351 27.2597 27.706 27.2597 28.0401C27.2597 28.3742 27.5306 28.6451 27.8647 28.6451H32.4946C32.9617 28.6451 33.3416 29.025 33.3416 29.492C33.3416 29.9591 32.9617 30.339 32.4946 30.339H21.0283C20.5839 30.3387 20.1548 30.178 19.8199 29.886ZM34.5514 29.4918C34.5514 29.7937 34.4855 30.0803 34.3682 30.3387H38.6853V9.0248L25.0134 9.02549V18.7236L33.959 18.7237C35.0932 18.7237 36.0158 19.6464 36.0158 20.7805C36.0158 21.0824 35.95 21.369 35.8525 21.6275C36.0038 21.6275 36.1513 21.6444 36.2935 21.6756V14.7916C36.2935 14.4576 36.5643 14.1866 36.8984 14.1866C37.2325 14.1866 37.5034 14.4576 37.5034 14.7916V22.4589C37.7582 22.8014 37.9094 23.2255 37.9094 23.6843C37.9094 24.6301 37.2676 25.4283 36.3966 25.6675C36.5361 25.9447 36.615 26.2572 36.615 26.588C36.615 27.7222 35.6923 28.6449 34.5582 28.6449H34.3682C34.4855 28.9034 34.5514 29.1899 34.5514 29.4918Z" fill="#1D2977" />
                        <path fill-rule="evenodd" clip-rule="evenodd" d="M27.0234 8.84961H30.3855V18.9352H27.0234V8.84961Z" fill="#1D2977" />
                        <path fill-rule="evenodd" clip-rule="evenodd" d="M7.5 6.91063C7.5 9.16374 9.41082 12.466 13.214 16.9382C13.4721 17.2418 13.9409 17.2418 14.199 16.9382C18.0022 12.466 19.913 9.16374 19.913 6.91063C19.913 3.48288 17.1342 0.704102 13.7065 0.704102C10.2787 0.704102 7.5 3.48288 7.5 6.91063ZM13.7065 1.99712C16.4202 1.99712 18.6199 4.19693 18.6199 6.91063C18.6199 8.66599 16.9875 11.569 13.7065 15.515C10.4255 11.569 8.79302 8.66599 8.79302 6.91063C8.79302 4.19693 10.9928 1.99712 13.7065 1.99712Z" fill="#F7F8FD" />
                        <path fill-rule="evenodd" clip-rule="evenodd" d="M10.668 6.91048C10.668 8.58861 12.0284 9.94906 13.7065 9.94906C15.3848 9.94906 16.7452 8.58861 16.7452 6.91048C16.7452 5.23227 15.3848 3.87183 13.7065 3.87183C12.0284 3.87183 10.668 5.23227 10.668 6.91048ZM15.5814 6.91048C15.5814 7.94589 14.742 8.7853 13.7065 8.7853C12.6711 8.7853 11.8317 7.94589 11.8317 6.91048C11.8317 5.87499 12.6711 5.03558 13.7065 5.03558C14.742 5.03558 15.5814 5.87499 15.5814 6.91048Z" fill="#F7F8FD" />
                    </svg>